<svg viewBox="0 0 120 120" fill="none" xmlns="http://www.w3.org/2000/svg">
  <rect x="32" y="18" width="56" height="84" rx="10" stroke="#0C4068" stroke-width="4.5"/>
  <rect x="40" y="30" width="40" height="48" rx="4" fill="#EBF7FD"/>
  <line x1="46" y1="42" x2="74" y2="42" stroke="#0C4068" stroke-width="3" stroke-linecap="round"/>
  <line x1="46" y1="52" x2="68" y2="52" stroke="#0C4068" stroke-width="3" stroke-linecap="round"/>
  <line x1="46" y1="62" x2="64" y2="62" stroke="#0C4068" stroke-width="3" stroke-linecap="round"/>
  <circle cx="60" cy="91" r="5" stroke="#0C4068" stroke-width="3"/>
  <path d="M93 20 L94.8 25.8 L101 27.5 L94.8 29.2 L93 35 L91.2 29.2 L85 27.5 L91.2 25.8 Z" fill="#E48375"/>
  <path d="M21 36 L22.2 39.8 L26 41 L22.2 42.2 L21 46 L19.8 42.2 L16 41 L19.8 39.8 Z" fill="#E48375" opacity=".75"/>
  <circle cx="76" cy="24" r="9" fill="#E48375"/>
  <text x="76" y="28" text-anchor="middle" font-family="sans-serif" font-size="10" font-weight="700" fill="white">3</text>
</svg>
